<?xml version="1.0" encoding="iso-8859-1"?>
<!-- Generator: Adobe Illustrator 19.0.0, SVG Export Plug-In . SVG Version: 6.00 Build 0)  -->
<svg version="1.1" id="Layer_1" xmlns="http://www.w3.org/2000/svg" xmlns:xlink="http://www.w3.org/1999/xlink" x="0px" y="0px"
	 viewBox="0 0 417.905 417.905" style="enable-background:new 0 0 417.905 417.905;" xml:space="preserve">
<g>
	<g>
		<g>
			<path d="M48.056,256.488c0-30.287,11.796-58.767,33.219-80.186l-10.861-10.861c-24.323,24.32-37.721,56.651-37.721,91.044
				c0,12.421,1.748,24.672,5.202,36.407l14.739-4.332C49.596,278.234,48.056,267.442,48.056,256.488z"/>
			<path d="M47.203,315.959c5.99,11.547,13.8,22.166,23.211,31.56l10.851-10.871c-8.291-8.274-15.165-17.613-20.429-27.761
				L47.203,315.959z"/>
			<path d="M417.901,228.284l-67.229-67.226l-56.368,56.385l0,0l-85.978,85.955c-12.506,12.534-29.164,19.432-46.899,19.432
				c-17.708,0-34.369-6.905-46.909-19.439c-12.534-12.534-19.435-29.194-19.435-46.906c0-17.729,6.902-34.396,19.435-46.927
				l75.09-75.096l0.003,0.003l67.239-67.236L189.611,0l-56.362,56.367l-0.003-0.003l-85.968,85.968
				C16.79,172.827,0.003,213.364,0.003,256.485c0,43.097,16.79,83.637,47.281,114.138c30.495,30.488,71.031,47.281,114.142,47.281
				c43.107,0,83.647-16.794,114.145-47.281l75.098-75.113l0.006,0.006L417.901,228.284z M305.169,228.297l45.507-45.513l45.51,45.5
				l-45.51,45.513l-0.689-0.689L305.169,228.297z M189.611,21.722l45.513,45.507l-45.513,45.51l-22.169-22.172l-23.333-23.338
				L189.611,21.722z M264.718,359.765c-27.6,27.587-64.283,42.779-103.291,42.779S85.74,387.352,58.146,359.765
				c-27.59-27.6-42.783-64.28-42.783-103.281c0-39.018,15.189-75.701,42.773-103.291l75.11-75.1l45.503,45.51L103.656,198.7
				c-15.438,15.432-23.938,35.956-23.938,57.784c0,21.815,8.503,42.329,23.938,57.774c15.445,15.435,35.959,23.934,57.771,23.934
				c21.849,0,42.363-8.509,57.767-23.941l75.114-75.086l45.507,45.493L264.718,359.765z"/>
		</g>
	</g>
</g>
<g>
</g>
<g>
</g>
<g>
</g>
<g>
</g>
<g>
</g>
<g>
</g>
<g>
</g>
<g>
</g>
<g>
</g>
<g>
</g>
<g>
</g>
<g>
</g>
<g>
</g>
<g>
</g>
<g>
</g>
</svg>
